<svg width="88" height="88" viewBox="0 0 88 88" fill="none" xmlns="http://www.w3.org/2000/svg">
<rect width="88" height="88" rx="10" fill="#0091D0"/>
<path d="M56.375 57.0625C49.5 55.7563 49.5 53.625 49.5 52.25V51.425C51.2451 49.7913 52.4857 47.6918 53.075 45.375H53.1437C55.2062 45.375 55.7562 41.0438 55.7562 40.3563C55.7562 39.6688 55.825 37.125 53.6937 37.125C58.1625 24.75 46.1312 19.8 37.0562 26.125C33.3437 26.125 33 31.625 34.375 37.125C32.2437 37.125 32.3125 39.7375 32.3125 40.3563C32.3125 40.975 32.7937 45.375 34.925 45.375C35.5143 47.6918 36.7549 49.7913 38.5 51.425V52.25C38.5 53.625 38.5 55.825 31.625 57.0625C29.7008 57.4027 27.919 58.3009 26.5012 59.6455C25.0833 60.99 24.0918 62.7216 23.65 64.625H64.35C63.892 62.7294 62.8954 61.0068 61.4804 59.6649C60.0653 58.3231 58.2922 57.4193 56.375 57.0625Z" fill="white"/>
</svg>
