<svg width="20" height="20" viewBox="0 0 20 20" fill="none" xmlns="http://www.w3.org/2000/svg">
<path d="M0.625 6.875V17.5H19.375V6.875H0.625ZM8.60719 13.9641C8.66301 14.0256 8.706 14.0976 8.73366 14.1759C8.76132 14.2543 8.77308 14.3373 8.76827 14.4203C8.76346 14.5032 8.74216 14.5843 8.70562 14.6589C8.66909 14.7335 8.61805 14.8001 8.55549 14.8547C8.49293 14.9094 8.4201 14.951 8.34126 14.9772C8.26242 15.0034 8.17916 15.0136 8.09634 15.0072C8.01351 15.0008 7.93279 14.978 7.85889 14.9401C7.78499 14.9021 7.7194 14.8498 7.66594 14.7863L5.11875 11.8706L7.66656 8.96438C7.71998 8.90045 7.78563 8.84785 7.85967 8.80966C7.9337 8.77147 8.01462 8.74847 8.09768 8.74201C8.18073 8.73554 8.26424 8.74575 8.34329 8.77202C8.42234 8.79829 8.49534 8.8401 8.558 8.895C8.62066 8.94989 8.67172 9.01675 8.70817 9.09166C8.74462 9.16656 8.76573 9.248 8.77025 9.33118C8.77477 9.41436 8.76262 9.49761 8.73451 9.57602C8.7064 9.65444 8.6629 9.72645 8.60656 9.78781L6.77938 11.8719L8.60719 13.9641ZM12.3572 14.7863C12.3037 14.8498 12.2381 14.9021 12.1642 14.9401C12.0903 14.978 12.0096 15.0008 11.9268 15.0072C11.844 15.0136 11.7607 15.0034 11.6819 14.9772C11.603 14.951 11.5302 14.9094 11.4676 14.8547C11.4051 14.8001 11.354 14.7335 11.3175 14.6589C11.281 14.5843 11.2597 14.5032 11.2549 14.4203C11.25 14.3373 11.2618 14.2543 11.2895 14.1759C11.3171 14.0976 11.3601 14.0256 11.4159 13.9641L13.2438 11.8719L11.4166 9.78656C11.3602 9.7252 11.3167 9.65319 11.2886 9.57477C11.2605 9.49636 11.2484 9.41311 11.2529 9.32993C11.2574 9.24675 11.2785 9.16531 11.315 9.09041C11.3514 9.0155 11.4025 8.94864 11.4651 8.89375C11.5278 8.83886 11.6008 8.79704 11.6798 8.77077C11.7589 8.7445 11.8424 8.73429 11.9254 8.74076C12.0085 8.74722 12.0894 8.77022 12.1635 8.80841C12.2375 8.8466 12.3031 8.8992 12.3566 8.96312L14.9044 11.8694L12.3572 14.7863Z" fill="white"/>
<path d="M0.625 2.5V5.625H19.375V2.5H0.625ZM2.5 4.6875C2.37639 4.6875 2.25555 4.65084 2.15277 4.58217C2.04999 4.51349 1.96988 4.41588 1.92258 4.30168C1.87527 4.18747 1.86289 4.06181 1.88701 3.94057C1.91112 3.81933 1.97065 3.70797 2.05806 3.62056C2.14547 3.53315 2.25683 3.47362 2.37807 3.44951C2.49931 3.42539 2.62497 3.43777 2.73918 3.48508C2.85338 3.53238 2.95099 3.61249 3.01967 3.71527C3.08834 3.81805 3.125 3.93889 3.125 4.0625C3.125 4.22826 3.05915 4.38723 2.94194 4.50444C2.82473 4.62165 2.66576 4.6875 2.5 4.6875ZM4.375 4.6875C4.25139 4.6875 4.13055 4.65084 4.02777 4.58217C3.92499 4.51349 3.84488 4.41588 3.79758 4.30168C3.75027 4.18747 3.73789 4.06181 3.76201 3.94057C3.78612 3.81933 3.84565 3.70797 3.93306 3.62056C4.02047 3.53315 4.13183 3.47362 4.25307 3.44951C4.37431 3.42539 4.49997 3.43777 4.61418 3.48508C4.72838 3.53238 4.82599 3.61249 4.89467 3.71527C4.96334 3.81805 5 3.93889 5 4.0625C5 4.22826 4.93415 4.38723 4.81694 4.50444C4.69973 4.62165 4.54076 4.6875 4.375 4.6875ZM6.25 4.6875C6.12639 4.6875 6.00555 4.65084 5.90277 4.58217C5.79999 4.51349 5.71988 4.41588 5.67257 4.30168C5.62527 4.18747 5.61289 4.06181 5.63701 3.94057C5.66112 3.81933 5.72065 3.70797 5.80806 3.62056C5.89547 3.53315 6.00683 3.47362 6.12807 3.44951C6.24931 3.42539 6.37497 3.43777 6.48918 3.48508C6.60338 3.53238 6.70099 3.61249 6.76967 3.71527C6.83834 3.81805 6.875 3.93889 6.875 4.0625C6.875 4.22826 6.80915 4.38723 6.69194 4.50444C6.57473 4.62165 6.41576 4.6875 6.25 4.6875Z" fill="white"/>
</svg>
