<svg width="88" height="88" viewBox="0 0 88 88" fill="none" xmlns="http://www.w3.org/2000/svg">
<rect width="88" height="88" rx="10" fill="#FF5352"/>
<g clip-path="url(#clip0_2_351)">
<path d="M44 22C39.6488 22 35.3953 23.2903 31.7775 25.7077C28.1596 28.1251 25.3398 31.561 23.6747 35.581C22.0095 39.6009 21.5739 44.0244 22.4227 48.292C23.2716 52.5596 25.3669 56.4796 28.4437 59.5564C31.5204 62.6331 35.4404 64.7284 39.708 65.5773C43.9756 66.4262 48.3991 65.9905 52.419 64.3253C56.439 62.6602 59.875 59.8404 62.2923 56.2225C64.7097 52.6047 66 48.3512 66 44C66 38.1652 63.6822 32.5695 59.5564 28.4437C55.4306 24.3179 49.8348 22 44 22V22ZM43.3125 25.6664C43.3125 25.4841 43.3849 25.3092 43.5139 25.1803C43.6428 25.0514 43.8177 24.9789 44 24.9789C44.1823 24.9789 44.3572 25.0514 44.4861 25.1803C44.6151 25.3092 44.6875 25.4841 44.6875 25.6664V29.3329C44.6875 29.5152 44.6151 29.6901 44.4861 29.819C44.3572 29.9479 44.1823 30.0204 44 30.0204C43.8177 30.0204 43.6428 29.9479 43.5139 29.819C43.3849 29.6901 43.3125 29.5152 43.3125 29.3329V25.6664ZM29.3336 44.6875H25.6664C25.4841 44.6875 25.3092 44.6151 25.1803 44.4861C25.0514 44.3572 24.9789 44.1823 24.9789 44C24.9789 43.8177 25.0514 43.6428 25.1803 43.5139C25.3092 43.3849 25.4841 43.3125 25.6664 43.3125H29.3336C29.5159 43.3125 29.6908 43.3849 29.8197 43.5139C29.9486 43.6428 30.0211 43.8177 30.0211 44C30.0211 44.1823 29.9486 44.3572 29.8197 44.4861C29.6908 44.6151 29.5159 44.6875 29.3336 44.6875ZM44.6875 62.3336C44.6875 62.5159 44.6151 62.6908 44.4861 62.8197C44.3572 62.9486 44.1823 63.0211 44 63.0211C43.8177 63.0211 43.6428 62.9486 43.5139 62.8197C43.3849 62.6908 43.3125 62.5159 43.3125 62.3336V58.6664C43.3125 58.4841 43.3849 58.3092 43.5139 58.1803C43.6428 58.0514 43.8177 57.9789 44 57.9789C44.1823 57.9789 44.3572 58.0514 44.4861 58.1803C44.6151 58.3092 44.6875 58.4841 44.6875 58.6664V62.3336ZM56.4623 34.4623L47.8115 43.1138C48.064 43.7222 48.167 44.3823 48.1121 45.0387C48.0571 45.6952 47.8458 46.3289 47.4957 46.8869C47.1456 47.4449 46.667 47.9109 46.0999 48.246C45.5328 48.5811 44.8936 48.7756 44.236 48.813C43.5783 48.8505 42.9213 48.7299 42.3198 48.4613C41.7183 48.1928 41.1898 47.784 40.7787 47.2694C40.3675 46.7547 40.0856 46.1491 39.9565 45.5032C39.8274 44.8572 39.8548 44.1897 40.0366 43.5566L35.2804 39.6646C35.0688 39.4914 34.9345 39.2412 34.9073 38.969C34.8801 38.6968 34.9622 38.425 35.1354 38.2133C35.3086 38.0016 35.5588 37.8674 35.831 37.8402C36.1032 37.813 36.375 37.895 36.5867 38.0683L41.0981 41.7594C41.812 41.0486 42.7621 40.6248 43.768 40.5685C44.7739 40.5122 45.7654 40.8274 46.5541 41.4542L55.0041 33.0041C55.1986 32.8163 55.4591 32.7123 55.7295 32.7147C55.9999 32.717 56.2586 32.8255 56.4498 33.0167C56.641 33.2079 56.7494 33.4665 56.7518 33.7369C56.7541 34.0073 56.6502 34.2678 56.4623 34.4623ZM62.3336 44.6875H58.6664C58.4841 44.6875 58.3092 44.6151 58.1803 44.4861C58.0514 44.3572 57.9789 44.1823 57.9789 44C57.9789 43.8177 58.0514 43.6428 58.1803 43.5139C58.3092 43.3849 58.4841 43.3125 58.6664 43.3125H62.3336C62.5159 43.3125 62.6908 43.3849 62.8197 43.5139C62.9486 43.6428 63.0211 43.8177 63.0211 44C63.0211 44.1823 62.9486 44.3572 62.8197 44.4861C62.6908 44.6151 62.5159 44.6875 62.3336 44.6875Z" fill="white"/>
<path d="M44 46.75C45.1391 46.75 46.0625 45.8266 46.0625 44.6875C46.0625 43.5484 45.1391 42.625 44 42.625C42.8609 42.625 41.9375 43.5484 41.9375 44.6875C41.9375 45.8266 42.8609 46.75 44 46.75Z" fill="white"/>
</g>
<defs>
<clipPath id="clip0_2_351">
<rect width="44" height="44" fill="white" transform="translate(22 22)"/>
</clipPath>
</defs>
</svg>
