<svg width="26" height="26" viewBox="0 0 26 26" fill="none" xmlns="http://www.w3.org/2000/svg">
<path d="M13 0C5.83171 0 0 5.83171 0 13C0 20.1683 5.83171 26 13 26C20.1683 26 26 20.1683 26 13C26 5.83171 20.1683 0 13 0ZM12.2383 6.38098C11.0794 6.33119 9.9323 6.16833 8.83693 5.90352C9.01189 5.48894 9.20172 5.09082 9.40643 4.71353C10.2463 3.16589 11.2774 2.07985 12.2383 1.68649V6.38098ZM12.2383 7.90561V12.2383H7.48051C7.54756 10.5472 7.83578 8.86847 8.31245 7.34146C9.57564 7.65964 10.9017 7.85225 12.2383 7.90561ZM12.2383 13.7617V18.0944C10.9017 18.1478 9.57564 18.3404 8.31245 18.6585C7.83578 17.1315 7.54756 15.4528 7.48051 13.7617H12.2383ZM12.2383 19.619V24.3135C11.2774 23.9202 10.2463 22.8341 9.40643 21.2865C9.20172 20.9092 9.01189 20.5111 8.83693 20.0965C9.9323 19.8317 11.0792 19.6688 12.2383 19.619ZM13.7617 19.619C14.9206 19.6688 16.0677 19.8317 17.1631 20.0965C16.9881 20.5111 16.7983 20.9092 16.5936 21.2865C15.7537 22.8341 14.7226 23.9202 13.7617 24.3135V19.619ZM13.7617 18.0944V13.7617H18.5195C18.4524 15.4528 18.1642 17.1315 17.6875 18.6585C16.4244 18.3404 15.0983 18.1478 13.7617 18.0944ZM13.7617 12.2383V7.90561C15.0983 7.85225 16.4244 7.65964 17.6875 7.34146C18.1642 8.86847 18.4524 10.5472 18.5195 12.2383H13.7617ZM13.7617 6.38098V1.68649C14.7226 2.07985 15.7537 3.16589 16.5936 4.71353C16.7983 5.09082 16.9881 5.48894 17.1631 5.90352C16.0677 6.16833 14.9206 6.33119 13.7617 6.38098ZM17.9325 3.98692C17.5511 3.28392 17.1367 2.66423 16.6999 2.13559C18.2229 2.6557 19.6026 3.48784 20.7628 4.55504C20.101 4.90952 19.3879 5.21738 18.6377 5.47466C18.4249 4.95772 18.1896 4.46042 17.9325 3.98692ZM8.06747 3.98692C7.81039 4.46042 7.57513 4.95772 7.36229 5.47466C6.61208 5.21738 5.89896 4.90932 5.23721 4.55504C6.39745 3.48784 7.77707 2.6557 9.30011 2.13559C8.86331 2.66423 8.44913 3.28372 8.06747 3.98692ZM6.84694 6.90645C6.32703 8.56973 6.02135 10.383 5.95549 12.2383H1.54942C1.71248 9.7625 2.66324 7.49837 4.15414 5.69603C4.98152 6.17052 5.88765 6.57637 6.84694 6.90645ZM5.95549 13.7617C6.02135 15.6172 6.32703 17.4303 6.84694 19.0936C5.88765 19.4236 4.98152 19.8295 4.15414 20.304C2.66324 18.5016 1.71248 16.2375 1.54942 13.7617H5.95549ZM7.36229 20.5253C7.57513 21.0423 7.81039 21.5396 8.06747 22.0131C8.44913 22.7161 8.86331 23.3358 9.30011 23.8644C7.77707 23.3443 6.39745 22.5122 5.23741 21.445C5.89876 21.0907 6.61208 20.7826 7.36229 20.5253ZM17.9325 22.0131C18.1896 21.5396 18.4249 21.0423 18.6377 20.5253C19.3879 20.7826 20.101 21.0907 20.7628 21.445C19.6026 22.5122 18.2229 23.3443 16.6999 23.8644C17.1367 23.3358 17.5509 22.7163 17.9325 22.0131ZM19.1531 19.0936C19.673 17.4303 19.9787 15.617 20.0445 13.7617H24.4506C24.2875 16.2375 23.3368 18.5016 21.8459 20.304C21.0185 19.8295 20.1124 19.4236 19.1531 19.0936ZM20.0445 12.2383C19.9787 10.3828 19.673 8.56973 19.1531 6.90645C20.1124 6.57637 21.0185 6.17052 21.8459 5.69603C23.3368 7.49837 24.2875 9.7625 24.4506 12.2383H20.0445Z" fill="#5E626E"/>
</svg>
