<svg width="88" height="88" viewBox="0 0 88 88" fill="none" xmlns="http://www.w3.org/2000/svg">
<rect width="88" height="88" rx="10" fill="#00B7B4"/>
<path d="M39.875 23.375H24.75V60.5H40.3563C39.15 58.4108 38.5147 56.041 38.5141 53.6285C38.5135 51.2161 39.1476 48.8459 40.3527 46.7561C41.5579 44.6663 43.2916 42.9303 45.3799 41.7224C47.4682 40.5146 49.8376 39.8775 52.25 39.875V35.75H39.875V23.375Z" fill="white"/>
<path d="M42.625 24.75V33H50.875L42.625 24.75Z" fill="white"/>
<path d="M52.25 42.625C50.0744 42.625 47.9477 43.2701 46.1387 44.4788C44.3298 45.6875 42.9199 47.4055 42.0873 49.4155C41.2548 51.4255 41.0369 53.6372 41.4614 55.771C41.8858 57.9048 42.9334 59.8648 44.4718 61.4032C46.0102 62.9416 47.9702 63.9892 50.104 64.4136C52.2378 64.8381 54.4495 64.6202 56.4595 63.7877C58.4695 62.9551 60.1875 61.5452 61.3962 59.7363C62.6049 57.9273 63.25 55.8006 63.25 53.625C63.25 50.7076 62.0911 47.9097 60.0282 45.8468C57.9653 43.7839 55.1674 42.625 52.25 42.625ZM57.3375 53.2125C57.0805 53.4644 56.7349 53.6056 56.375 53.6056C56.0151 53.6056 55.6695 53.4644 55.4125 53.2125L53.625 51.425V59.125C53.625 59.4897 53.4801 59.8394 53.2223 60.0973C52.9644 60.3551 52.6147 60.5 52.25 60.5C51.8853 60.5 51.5356 60.3551 51.2777 60.0973C51.0199 59.8394 50.875 59.4897 50.875 59.125V51.425L49.0875 53.2125C48.8227 53.4111 48.4952 53.5075 48.165 53.484C47.8349 53.4606 47.5243 53.3188 47.2902 53.0848C47.0562 52.8507 46.9144 52.5401 46.891 52.21C46.8675 51.8798 46.9639 51.5523 47.1625 51.2875L52.25 46.2L57.3375 51.2875C57.5894 51.5445 57.7306 51.8901 57.7306 52.25C57.7306 52.6099 57.5894 52.9555 57.3375 53.2125Z" fill="white"/>
</svg>
