<svg width="34" height="34" viewBox="0 0 34 34" fill="none" xmlns="http://www.w3.org/2000/svg">
<g id="G">
<rect id="Rectangle 110" width="34" height="34" rx="4" fill="#FE5000"/>
<path id="__2QEraZd__Shape" d="M17.1932 8.2934C12.2884 8.2934 8.2934 12.2686 8.2934 17.1932C8.2934 22.1177 12.2686 26.093 17.1932 26.093C22.1177 26.093 26.093 22.1177 26.093 17.1932C26.093 12.2884 22.1177 8.2934 17.1932 8.2934ZM28.0114 17.1932C28.0114 23.1659 23.1659 28.0114 17.1932 28.0114C11.2204 28.0114 6.375 23.1659 6.375 17.1932C6.375 11.2204 11.2204 6.375 17.1932 6.375C23.1659 6.375 28.0114 11.2204 28.0114 17.1932ZM12.5653 12.4862C13.6926 12.4862 14.6024 13.3959 14.6024 14.5232C14.6024 15.6506 13.6926 16.5603 12.5653 16.5603C11.4182 16.5405 10.5282 15.6308 10.5282 14.5232C10.5282 13.3959 11.438 12.4862 12.5653 12.4862ZM21.7024 12.4862C22.8297 12.4862 23.7395 13.3959 23.7395 14.5232C23.7395 15.6506 22.8297 16.5603 21.7024 16.5603C20.5751 16.5603 19.6653 15.6308 19.6653 14.5232C19.6653 13.3959 20.5751 12.4862 21.7024 12.4862Z" fill="white"/>
</g>
</svg>
