<svg width="58" height="58" viewBox="0 0 58 58" fill="none" xmlns="http://www.w3.org/2000/svg">
<g filter="url(#filter0_d_2_141)">
<rect x="12" y="6" width="34" height="34" rx="4" fill="#2777C6"/>
<path d="M32.3211 25.8417C33.4492 26.1237 34.5371 26.4863 35.5846 27.0101C36.6322 27.4936 37.5589 28.098 38.4453 28.7829C39.3317 29.4679 40.1375 30.2334 40.903 31.0795C41.6686 31.9256 42.3132 32.812 42.8773 33.8193H38.6467C38.0021 33.0538 37.3171 32.3688 36.5516 31.7645C35.7861 31.1601 34.94 30.6363 34.0536 30.1931C33.1672 29.7499 32.2405 29.4276 31.2735 29.1858C30.3065 28.9441 29.2992 28.8232 28.2114 28.8232C27.1235 28.8232 26.1162 28.9441 25.1089 29.1858C24.1017 29.4276 23.175 29.7499 22.3289 30.1931C21.4425 30.6363 20.6366 31.1601 19.8711 31.7645C19.1056 32.3688 18.3803 33.0538 17.776 33.8193H13.5454C14.1095 32.812 14.7541 31.9256 15.5197 31.0392C16.2852 30.1931 17.091 29.4276 18.0177 28.7426C18.9444 28.0577 19.9114 27.4936 20.9187 27.0101C21.9662 26.5266 23.0541 26.1237 24.1823 25.8417C23.175 25.5999 22.2483 25.2776 21.4022 24.8747C20.5158 24.4718 19.7099 23.9883 18.9041 23.4242C18.0983 22.8601 17.3731 22.2558 16.6881 21.5708C16.0032 20.8859 15.3988 20.1203 14.8347 19.3548C15.1168 18.9116 15.3988 18.5087 15.7614 18.1058C16.0837 17.7029 16.4464 17.3403 16.809 16.9776C17.1716 16.615 17.5342 16.2121 17.9774 15.8898C18.3803 15.5674 18.7832 15.2451 19.1862 14.9631C19.2265 14.6005 19.307 14.2781 19.4682 13.9961C19.6294 13.7141 19.8308 13.432 20.0726 13.1903C20.3143 12.9485 20.5963 12.7471 20.9187 12.6262C21.241 12.5053 21.5633 12.4247 21.926 12.4247C22.3289 12.4247 22.6915 12.5053 23.0138 12.6665C23.3361 12.8277 23.6585 13.0291 23.9002 13.2709C24.142 13.5126 24.3837 13.8349 24.5046 14.1573C24.7463 14.5199 24.8269 14.8825 24.8269 15.2854C24.8269 15.6883 24.7463 16.0509 24.5852 16.3733C24.424 16.6956 24.2225 17.0179 23.9808 17.2597C23.7391 17.5014 23.4167 17.7029 23.0944 17.864C22.7721 17.9849 22.4094 18.0655 22.0065 18.0655C21.926 18.0655 21.8454 18.0655 21.7245 18.0655C21.6439 18.0655 21.523 18.0655 21.4425 18.0252C21.3619 18.0252 21.2813 17.9849 21.1604 17.9446C21.0798 17.9043 20.959 17.864 20.8784 17.8237C20.7172 17.9446 20.5561 18.0655 20.4352 18.1864C20.3143 18.3072 20.1531 18.4281 19.992 18.549C19.8308 18.6699 19.6697 18.7907 19.5488 18.9116C19.4279 19.0325 19.2667 19.1534 19.1459 19.3145C19.7502 19.8786 20.3546 20.4024 21.0395 20.8456C21.7245 21.3291 22.4497 21.732 23.2153 22.014C23.9808 22.3363 24.7866 22.5781 25.6327 22.7393C26.4788 22.9004 27.3652 23.0213 28.2114 23.0213C29.0978 23.0213 29.9439 22.9407 30.79 22.7393C31.6361 22.5781 32.4419 22.2961 33.2075 22.014C33.973 21.6917 34.6982 21.2888 35.3832 20.8456C36.0681 20.3621 36.6725 19.8383 37.2769 19.3145H37.3171C37.3171 19.2742 37.3171 19.2339 37.3171 19.1936C37.3171 19.1534 37.3171 19.1131 37.3171 19.0728C37.3171 19.0325 37.3171 18.9922 37.3171 18.9519C37.3171 18.9116 37.3171 18.8713 37.3171 18.831C37.3171 18.4281 37.3977 18.0655 37.5186 17.7029C37.6395 17.3403 37.8812 17.0179 38.123 16.7359C38.405 16.4539 38.7273 16.2524 39.09 16.1315C39.4526 16.0106 39.8152 15.9301 40.2181 15.9301C40.621 15.9301 40.9836 16.0106 41.3463 16.1315C41.7089 16.2524 41.9909 16.4941 42.2729 16.7359C42.5147 17.0179 42.7564 17.3403 42.8773 17.7029C43.0385 18.0655 43.1191 18.4281 43.1191 18.831C43.1191 19.2339 43.0385 19.5966 42.8773 19.9592C42.7161 20.3218 42.5147 20.6038 42.2729 20.8859C42.0312 21.1276 41.7089 21.3694 41.3463 21.4902C40.9836 21.6514 40.621 21.732 40.2181 21.732C40.1375 21.732 40.0972 21.732 40.0569 21.732C40.0166 21.732 39.9764 21.732 39.8958 21.732C39.8555 21.732 39.7749 21.732 39.7346 21.6917C39.6943 21.6917 39.654 21.6514 39.5734 21.6514C39.09 22.1349 38.5662 22.5781 38.0021 23.0213C37.438 23.4645 36.8337 23.8674 36.2293 24.1897C35.6249 24.5524 34.9803 24.8747 34.2953 25.1567C33.7312 25.4791 33.006 25.6805 32.3211 25.8417Z" fill="white"/>
<path d="M26.4389 15.6879C26.4389 15.6477 26.4389 15.6074 26.4389 15.5671C26.4389 15.5268 26.4389 15.4865 26.4389 15.4462C26.4389 15.4059 26.4389 15.3656 26.4389 15.3253C26.4389 15.285 26.4389 15.2447 26.4389 15.2044C26.4389 14.9627 26.3986 14.721 26.3986 14.4792C26.3583 14.2375 26.318 13.9554 26.2374 13.754C26.1569 13.5122 26.036 13.2705 25.9151 13.069C25.7942 12.8676 25.6331 12.6258 25.5122 12.4647C25.7137 12.4244 25.9151 12.3841 26.1569 12.3841C26.3986 12.3841 26.6404 12.3438 26.8821 12.3438C27.1238 12.3438 27.3656 12.3035 27.6073 12.3035C27.8088 12.1826 28.0505 12.1826 28.252 12.1826C29.1384 12.1826 29.9845 12.2632 30.8306 12.3841C31.6767 12.5049 32.4826 12.7064 33.2884 12.9884C34.0942 13.2302 34.8597 13.5525 35.585 13.9554C36.3102 14.318 37.0355 14.7612 37.6801 15.2447C37.4384 15.4059 37.2369 15.6074 37.0355 15.8088C36.834 16.0103 36.6728 16.252 36.5117 16.4938C36.3908 16.7355 36.2296 16.9773 36.1088 17.2593C35.9879 17.5413 35.9073 17.8234 35.867 18.1054C35.3432 17.7025 34.7792 17.3399 34.1748 17.0175C33.5704 16.6952 32.9258 16.4535 32.3214 16.2117C31.6767 16.0103 31.0321 15.8491 30.3471 15.7282C29.6622 15.6477 28.9369 15.5671 28.252 15.5671C28.0908 15.5671 27.9297 15.5671 27.7685 15.5671C27.6073 15.5671 27.4462 15.5671 27.285 15.5671C27.1238 15.5671 26.9627 15.5671 26.8418 15.6074C26.7209 15.6074 26.6001 15.6477 26.4389 15.6879Z" fill="white"/>
<path d="M25.5928 19.5557C25.5928 19.1528 25.6734 18.7902 25.8345 18.4679C25.9957 18.1455 26.1971 17.8232 26.4389 17.5815C26.6806 17.3397 27.003 17.098 27.3253 16.9771C27.6476 16.8159 28.0102 16.7354 28.4131 16.7354C28.8161 16.7354 29.1787 16.8159 29.5413 16.9771C29.9039 17.1383 30.186 17.3397 30.468 17.5815C30.7097 17.8232 30.9112 18.1455 31.0724 18.4679C31.1932 18.7902 31.2738 19.1528 31.2738 19.5557C31.2738 19.9586 31.1932 20.3213 31.0724 20.6436C30.9515 20.9659 30.75 21.2882 30.468 21.53C30.2262 21.7717 29.9039 22.0135 29.5413 22.1344C29.1787 22.2955 28.8161 22.3761 28.4131 22.3761C28.0102 22.3761 27.6476 22.2955 27.3253 22.1344C27.003 21.9732 26.6806 21.7717 26.4389 21.53C26.1971 21.2882 25.9554 20.9659 25.8345 20.6436C25.6734 20.3213 25.5928 19.9586 25.5928 19.5557Z" fill="white"/>
</g>
<defs>
<filter id="filter0_d_2_141" x="0" y="0" width="58" height="58" filterUnits="userSpaceOnUse" color-interpolation-filters="sRGB">
<feFlood flood-opacity="0" result="BackgroundImageFix"/>
<feColorMatrix in="SourceAlpha" type="matrix" values="0 0 0 0 0 0 0 0 0 0 0 0 0 0 0 0 0 0 127 0" result="hardAlpha"/>
<feOffset dy="6"/>
<feGaussianBlur stdDeviation="6"/>
<feComposite in2="hardAlpha" operator="out"/>
<feColorMatrix type="matrix" values="0 0 0 0 0.152941 0 0 0 0 0.466667 0 0 0 0 0.776471 0 0 0 0.15 0"/>
<feBlend mode="normal" in2="BackgroundImageFix" result="effect1_dropShadow_2_141"/>
<feBlend mode="normal" in="SourceGraphic" in2="effect1_dropShadow_2_141" result="shape"/>
</filter>
</defs>
</svg>
