<svg width="58" height="58" viewBox="0 0 58 58" fill="none" xmlns="http://www.w3.org/2000/svg">
<g filter="url(#filter0_d_2_90)">
<rect x="12" y="6" width="34" height="34" rx="6" fill="#14A800"/>
<path d="M34.8782 24.6066C34.248 24.5728 33.6355 24.3937 33.0921 24.0844C32.5487 23.775 32.0903 23.3445 31.7554 22.8289C32.1593 19.7267 33.3349 18.7624 34.8902 18.7624C36.4456 18.7624 37.6271 19.9243 37.6271 21.6671C37.6271 23.4099 36.4215 24.5718 34.8902 24.5718L34.8782 24.6066ZM34.8902 16.8221C33.7926 16.7792 32.7143 17.1095 31.8437 17.7551C30.9732 18.4007 30.3658 19.3207 30.1277 20.3542C29.6117 19.3123 29.2213 18.2169 28.9643 17.0893H25.1241V21.6787C25.1241 23.346 24.3404 24.5834 22.8032 24.5834C21.2659 24.5834 20.3918 23.3518 20.3918 21.6787V17.0893H18.1854V21.6787C18.1353 22.9505 18.5902 24.1928 19.4574 25.1527C19.8807 25.5968 20.3977 25.9484 20.9738 26.1839C21.5499 26.4194 22.1716 26.5333 22.7971 26.5179C25.4557 26.5179 27.3185 24.5485 27.3185 21.731V18.6288C27.77 20.2981 28.5164 21.88 29.5249 23.3053L28.3433 29.8002H30.5859L31.3636 25.1992C31.621 25.4128 31.8951 25.607 32.1835 25.7801C32.9326 26.2361 33.7938 26.4926 34.6792 26.5237H34.8842C35.5429 26.5303 36.1962 26.4084 36.8047 26.1653C37.4133 25.9223 37.9645 25.563 38.4252 25.1093C38.8859 24.6556 39.2465 24.1167 39.4855 23.5252C39.7244 22.9336 39.8367 22.3015 39.8155 21.6671C39.8309 21.0349 39.7142 20.4063 39.4724 19.8184C39.2307 19.2306 38.8687 18.6956 38.4082 18.2453C37.9476 17.7949 37.3977 17.4384 36.7913 17.1969C36.1849 16.9554 35.5343 16.8339 34.8782 16.8395" fill="white"/>
</g>
<defs>
<filter id="filter0_d_2_90" x="0" y="0" width="58" height="58" filterUnits="userSpaceOnUse" color-interpolation-filters="sRGB">
<feFlood flood-opacity="0" result="BackgroundImageFix"/>
<feColorMatrix in="SourceAlpha" type="matrix" values="0 0 0 0 0 0 0 0 0 0 0 0 0 0 0 0 0 0 127 0" result="hardAlpha"/>
<feOffset dy="6"/>
<feGaussianBlur stdDeviation="6"/>
<feComposite in2="hardAlpha" operator="out"/>
<feColorMatrix type="matrix" values="0 0 0 0 0.0784314 0 0 0 0 0.658824 0 0 0 0 0 0 0 0 0.15 0"/>
<feBlend mode="normal" in2="BackgroundImageFix" result="effect1_dropShadow_2_90"/>
<feBlend mode="normal" in="SourceGraphic" in2="effect1_dropShadow_2_90" result="shape"/>
</filter>
</defs>
</svg>
