<svg width="58" height="58" viewBox="0 0 58 58" fill="none" xmlns="http://www.w3.org/2000/svg">
<g filter="url(#filter0_d_2_124)">
<rect x="12" y="6" width="34" height="34" rx="4" fill="#29B2FE"/>
<path d="M31.6992 12.1816L33.8041 14.9605L44.4545 12.1816H31.6992ZM20.6335 33.818L26.3948 28.5161L22.9272 25.0134L20.6335 33.818ZM30.8269 12.1816L27.7476 14.7954L32.9267 14.9772L30.8269 12.1816ZM18.8561 12.1816L19.962 14.3153L26.057 14.6727L18.8561 12.1816ZM22.1191 23.245L26.622 15.338L13.5454 14.6727L22.1191 23.245ZM22.6434 23.7463L26.8969 28.0471L31.5889 23.7179L33.045 15.6544L27.3272 15.3798" fill="white"/>
</g>
<defs>
<filter id="filter0_d_2_124" x="0" y="0" width="58" height="58" filterUnits="userSpaceOnUse" color-interpolation-filters="sRGB">
<feFlood flood-opacity="0" result="BackgroundImageFix"/>
<feColorMatrix in="SourceAlpha" type="matrix" values="0 0 0 0 0 0 0 0 0 0 0 0 0 0 0 0 0 0 127 0" result="hardAlpha"/>
<feOffset dy="6"/>
<feGaussianBlur stdDeviation="6"/>
<feComposite in2="hardAlpha" operator="out"/>
<feColorMatrix type="matrix" values="0 0 0 0 0.160784 0 0 0 0 0.698039 0 0 0 0 0.996078 0 0 0 0.15 0"/>
<feBlend mode="normal" in2="BackgroundImageFix" result="effect1_dropShadow_2_124"/>
<feBlend mode="normal" in="SourceGraphic" in2="effect1_dropShadow_2_124" result="shape"/>
</filter>
</defs>
</svg>
