<svg width="11" height="11" viewBox="0 0 11 11" fill="none" xmlns="http://www.w3.org/2000/svg">
<path d="M2.43762 3.34373H0.159491V10.0729H2.43762V3.34373Z" fill="white"/>
<path d="M2.05462 0.203378C1.8375 0.0707727 1.58234 4.03372e-06 1.32133 1.71819e-10C1.14718 -2.68886e-06 0.974735 0.0315128 0.813929 0.0927344C0.653124 0.153956 0.507125 0.243675 0.38433 0.356732C0.261535 0.46979 0.164367 0.603954 0.098413 0.751511C0.0324591 0.899067 -0.000979103 1.0571 2.18239e-05 1.21653C0.00152211 1.45546 0.0802888 1.68864 0.226386 1.88664C0.372482 2.08463 0.579363 2.23859 0.820929 2.32907C1.0625 2.41956 1.32793 2.44252 1.58373 2.39507C1.83954 2.34761 2.07426 2.23187 2.25829 2.06243C2.44232 1.89299 2.56741 1.67746 2.61779 1.44301C2.66816 1.20857 2.64155 0.965721 2.54132 0.745103C2.4411 0.524486 2.27174 0.335984 2.05462 0.203378Z" fill="white"/>
<path d="M6.09444 3.34339H3.89984L3.89225 10.0865H6.17037V6.75663C6.17037 5.88073 6.35262 5.03263 7.53725 5.03263C8.72187 5.03263 8.72188 6.04061 8.72188 6.81919V10.0726H11V6.38124C11 4.56687 10.5368 3.17655 8.25866 3.17655C7.82446 3.16099 7.3938 3.25365 7.01264 3.44465C6.63148 3.63564 6.31412 3.9178 6.09444 4.261V3.34339Z" fill="white"/>
</svg>
