<svg width="8" height="12" viewBox="0 0 8 12" fill="none" xmlns="http://www.w3.org/2000/svg">
<path d="M4 0C2.93913 0 1.92172 0.421427 1.17157 1.17157C0.421427 1.92172 0 2.93913 0 4C0 7.6 4 12 4 12C4 12 8 7.6 8 4C8 2.93913 7.57857 1.92172 6.82843 1.17157C6.07828 0.421427 5.06087 0 4 0ZM4 5.6C3.68355 5.6 3.37421 5.50616 3.11109 5.33035C2.84797 5.15454 2.64289 4.90466 2.52179 4.61229C2.40069 4.31993 2.36901 3.99823 2.43074 3.68786C2.49248 3.37749 2.64487 3.09239 2.86863 2.86863C3.09239 2.64487 3.37749 2.49248 3.68786 2.43074C3.99823 2.36901 4.31993 2.40069 4.61229 2.52179C4.90465 2.64289 5.15454 2.84797 5.33035 3.11109C5.50616 3.37421 5.6 3.68355 5.6 4C5.6 4.42435 5.43143 4.83131 5.13137 5.13137C4.83131 5.43143 4.42435 5.6 4 5.6Z" fill="#605858"/>
</svg>
