<svg width="20" height="16" viewBox="0 0 20 16" fill="none" xmlns="http://www.w3.org/2000/svg">
<path d="M0 4.66667V16H20V4.66667H0ZM8.51433 12.2283C8.57387 12.294 8.61974 12.3708 8.64924 12.4543C8.67874 12.5379 8.69129 12.6265 8.68615 12.7149C8.68102 12.8034 8.6583 12.8899 8.61933 12.9695C8.58036 13.0491 8.52592 13.1201 8.45919 13.1784C8.39245 13.2367 8.31477 13.2811 8.23068 13.309C8.14659 13.3369 8.05777 13.3478 7.96943 13.341C7.88108 13.3342 7.79498 13.3099 7.71615 13.2694C7.63732 13.2289 7.56736 13.1732 7.51033 13.1053L4.79333 9.99534L7.511 6.89534C7.56798 6.82715 7.63801 6.77104 7.71698 6.73031C7.79595 6.68958 7.88227 6.66504 7.97085 6.65815C8.05944 6.65125 8.14852 6.66214 8.23284 6.69016C8.31716 6.71819 8.39503 6.76278 8.46187 6.82133C8.52871 6.87988 8.58317 6.95121 8.62205 7.03111C8.66093 7.11101 8.68344 7.19787 8.68827 7.2866C8.69309 7.37532 8.68013 7.46412 8.65015 7.54776C8.62016 7.63141 8.57376 7.70822 8.51367 7.77367L6.56467 9.99667L8.51433 12.2283ZM12.5143 13.1053C12.4573 13.1732 12.3873 13.2289 12.3085 13.2694C12.2297 13.3099 12.1436 13.3342 12.0552 13.341C11.9669 13.3478 11.8781 13.3369 11.794 13.309C11.7099 13.2811 11.6322 13.2367 11.5655 13.1784C11.4987 13.1201 11.4443 13.0491 11.4053 12.9695C11.3664 12.8899 11.3436 12.8034 11.3385 12.7149C11.3334 12.6265 11.3459 12.5379 11.3754 12.4543C11.4049 12.3708 11.4508 12.294 11.5103 12.2283L13.46 9.99667L11.511 7.77234C11.4509 7.70688 11.4045 7.63008 11.3745 7.54643C11.3445 7.46279 11.3316 7.37399 11.3364 7.28526C11.3412 7.19654 11.3637 7.10967 11.4026 7.02977C11.4415 6.94987 11.496 6.87855 11.5628 6.82C11.6296 6.76145 11.7075 6.71685 11.7918 6.68883C11.8761 6.6608 11.9652 6.64992 12.0538 6.65681C12.1424 6.66371 12.2287 6.68824 12.3077 6.72898C12.3867 6.76971 12.4567 6.82582 12.5137 6.894L15.2313 9.994L12.5143 13.1053Z" fill="white"/>
<path d="M0 0V3.33333H20V0H0ZM2 2.33333C1.86815 2.33333 1.73925 2.29423 1.62962 2.22098C1.51999 2.14773 1.43454 2.04361 1.38408 1.92179C1.33362 1.79997 1.32042 1.66593 1.34614 1.53661C1.37187 1.40729 1.43536 1.2885 1.5286 1.19526C1.62183 1.10203 1.74062 1.03853 1.86994 1.01281C1.99926 0.987086 2.1333 1.00029 2.25512 1.05075C2.37694 1.10121 2.48106 1.18665 2.55431 1.29629C2.62757 1.40592 2.66667 1.53481 2.66667 1.66667C2.66667 1.84348 2.59643 2.01305 2.4714 2.13807C2.34638 2.2631 2.17681 2.33333 2 2.33333ZM4 2.33333C3.86815 2.33333 3.73925 2.29423 3.62962 2.22098C3.51999 2.14773 3.43454 2.04361 3.38408 1.92179C3.33362 1.79997 3.32042 1.66593 3.34614 1.53661C3.37187 1.40729 3.43536 1.2885 3.5286 1.19526C3.62183 1.10203 3.74062 1.03853 3.86994 1.01281C3.99926 0.987086 4.1333 1.00029 4.25512 1.05075C4.37694 1.10121 4.48106 1.18665 4.55431 1.29629C4.62757 1.40592 4.66667 1.53481 4.66667 1.66667C4.66667 1.84348 4.59643 2.01305 4.4714 2.13807C4.34638 2.2631 4.17681 2.33333 4 2.33333ZM6 2.33333C5.86815 2.33333 5.73925 2.29423 5.62962 2.22098C5.51999 2.14773 5.43454 2.04361 5.38408 1.92179C5.33362 1.79997 5.32042 1.66593 5.34614 1.53661C5.37187 1.40729 5.43536 1.2885 5.5286 1.19526C5.62183 1.10203 5.74062 1.03853 5.86994 1.01281C5.99926 0.987086 6.13331 1.00029 6.25512 1.05075C6.37694 1.10121 6.48106 1.18665 6.55431 1.29629C6.62757 1.40592 6.66667 1.53481 6.66667 1.66667C6.66667 1.84348 6.59643 2.01305 6.4714 2.13807C6.34638 2.2631 6.17681 2.33333 6 2.33333Z" fill="white"/>
</svg>
