<svg width="20" height="20" viewBox="0 0 20 20" fill="none" xmlns="http://www.w3.org/2000/svg">
<path d="M17.5 6.5625V2.1875C14.7483 4.12445 11.4885 5.21104 8.125 5.3125H5.625V11.5625C5.625 13.4687 5.625 16.375 9.15625 17.7813H9.375C9.52581 17.7873 9.67373 17.7386 9.79142 17.6441C9.90912 17.5496 9.98864 17.4157 10.0153 17.2672C10.042 17.1186 10.014 16.9654 9.93649 16.8359C9.859 16.7064 9.73726 16.6093 9.59375 16.5625C6.875 15.5 6.875 13.4063 6.875 11.5625H8.125C11.5043 11.5714 14.7912 12.6671 17.5 14.6875V10.3125C17.9973 10.3125 18.4742 10.115 18.8258 9.76333C19.1775 9.41169 19.375 8.93478 19.375 8.4375C19.375 7.94022 19.1775 7.46331 18.8258 7.11167C18.4742 6.76004 17.9973 6.5625 17.5 6.5625V6.5625ZM0.625 7.1875V9.6875C0.625 10.1848 0.822544 10.6617 1.17417 11.0133C1.52581 11.365 2.00272 11.5625 2.5 11.5625H4.375V5.3125H2.5C2.00272 5.3125 1.52581 5.51004 1.17417 5.86167C0.822544 6.21331 0.625 6.69022 0.625 7.1875V7.1875Z" fill="white"/>
</svg>
