<svg width="20" height="20" viewBox="0 0 20 20" fill="none" xmlns="http://www.w3.org/2000/svg">
<path d="M0.625 6.875V17.5H19.375V6.875H0.625ZM10.625 15H4.375C4.20924 15 4.05027 14.9342 3.93306 14.8169C3.81585 14.6997 3.75 14.5408 3.75 14.375C3.75 14.2092 3.81585 14.0503 3.93306 13.9331C4.05027 13.8158 4.20924 13.75 4.375 13.75H10.625C10.7908 13.75 10.9497 13.8158 11.0669 13.9331C11.1842 14.0503 11.25 14.2092 11.25 14.375C11.25 14.5408 11.1842 14.6997 11.0669 14.8169C10.9497 14.9342 10.7908 15 10.625 15ZM15.625 12.5H4.375C4.20924 12.5 4.05027 12.4342 3.93306 12.3169C3.81585 12.1997 3.75 12.0408 3.75 11.875C3.75 11.7092 3.81585 11.5503 3.93306 11.4331C4.05027 11.3158 4.20924 11.25 4.375 11.25H15.625C15.7908 11.25 15.9497 11.3158 16.0669 11.4331C16.1842 11.5503 16.25 11.7092 16.25 11.875C16.25 12.0408 16.1842 12.1997 16.0669 12.3169C15.9497 12.4342 15.7908 12.5 15.625 12.5ZM15.625 10H4.375C4.20924 10 4.05027 9.93415 3.93306 9.81694C3.81585 9.69973 3.75 9.54076 3.75 9.375C3.75 9.20924 3.81585 9.05027 3.93306 8.93306C4.05027 8.81585 4.20924 8.75 4.375 8.75H15.625C15.7908 8.75 15.9497 8.81585 16.0669 8.93306C16.1842 9.05027 16.25 9.20924 16.25 9.375C16.25 9.54076 16.1842 9.69973 16.0669 9.81694C15.9497 9.93415 15.7908 10 15.625 10Z" fill="white"/>
<path d="M0.625 2.5V5.625H19.375V2.5H0.625ZM2.5 4.6875C2.37639 4.6875 2.25555 4.65084 2.15277 4.58217C2.04999 4.51349 1.96988 4.41588 1.92258 4.30168C1.87527 4.18747 1.86289 4.06181 1.88701 3.94057C1.91112 3.81933 1.97065 3.70797 2.05806 3.62056C2.14547 3.53315 2.25683 3.47362 2.37807 3.44951C2.49931 3.42539 2.62497 3.43777 2.73918 3.48508C2.85338 3.53238 2.95099 3.61249 3.01967 3.71527C3.08834 3.81805 3.125 3.93889 3.125 4.0625C3.125 4.22826 3.05915 4.38723 2.94194 4.50444C2.82473 4.62165 2.66576 4.6875 2.5 4.6875ZM4.375 4.6875C4.25139 4.6875 4.13055 4.65084 4.02777 4.58217C3.92499 4.51349 3.84488 4.41588 3.79758 4.30168C3.75027 4.18747 3.73789 4.06181 3.76201 3.94057C3.78612 3.81933 3.84565 3.70797 3.93306 3.62056C4.02047 3.53315 4.13183 3.47362 4.25307 3.44951C4.37431 3.42539 4.49997 3.43777 4.61418 3.48508C4.72838 3.53238 4.82599 3.61249 4.89467 3.71527C4.96334 3.81805 5 3.93889 5 4.0625C5 4.22826 4.93415 4.38723 4.81694 4.50444C4.69973 4.62165 4.54076 4.6875 4.375 4.6875ZM6.25 4.6875C6.12639 4.6875 6.00555 4.65084 5.90277 4.58217C5.79999 4.51349 5.71988 4.41588 5.67258 4.30168C5.62527 4.18747 5.61289 4.06181 5.63701 3.94057C5.66112 3.81933 5.72065 3.70797 5.80806 3.62056C5.89547 3.53315 6.00683 3.47362 6.12807 3.44951C6.24931 3.42539 6.37497 3.43777 6.48918 3.48508C6.60338 3.53238 6.70099 3.61249 6.76967 3.71527C6.83834 3.81805 6.875 3.93889 6.875 4.0625C6.875 4.22826 6.80915 4.38723 6.69194 4.50444C6.57473 4.62165 6.41576 4.6875 6.25 4.6875Z" fill="white"/>
</svg>
