<svg width="12" height="12" viewBox="0 0 12 12" fill="none" xmlns="http://www.w3.org/2000/svg">
<path d="M6 0C4.81331 0 3.65328 0.351894 2.66658 1.01118C1.67989 1.67047 0.910851 2.60754 0.456725 3.7039C0.00259969 4.80025 -0.11622 6.00665 0.115291 7.17054C0.346802 8.33443 0.918247 9.40352 1.75736 10.2426C2.59648 11.0818 3.66557 11.6532 4.82946 11.8847C5.99335 12.1162 7.19974 11.9974 8.2961 11.5433C9.39246 11.0891 10.3295 10.3201 10.9888 9.33342C11.6481 8.34672 12 7.18669 12 6C12 4.4087 11.3679 2.88258 10.2426 1.75736C9.11742 0.632141 7.5913 0 6 0V0ZM8.52769 8.62612L5.59425 6.62569C5.58263 6.61837 5.57156 6.6105 5.5605 6.60262L5.52713 6.57994L5.5305 6.57825C5.41483 6.49021 5.3269 6.37079 5.27717 6.2342C5.22744 6.09761 5.21801 5.94961 5.25 5.80781L5.97056 1.55362C5.9722 1.54188 5.97802 1.53113 5.98697 1.52334C5.99591 1.51556 6.00736 1.51127 6.01922 1.51127C6.03108 1.51127 6.04253 1.51556 6.05147 1.52334C6.06042 1.53113 6.06624 1.54188 6.06788 1.55362L6.80231 5.97337L8.59613 8.55825C8.60299 8.56767 8.60626 8.57923 8.60533 8.59085C8.60441 8.60248 8.59934 8.61338 8.59107 8.62159C8.58279 8.6298 8.57185 8.63477 8.56022 8.6356C8.54859 8.63643 8.53705 8.63307 8.52769 8.62612Z" fill="#605858"/>
</svg>
