<svg width="72" height="72" viewBox="0 0 72 72" fill="none" xmlns="http://www.w3.org/2000/svg">
<rect width="72" height="72" rx="8" fill="#FF6158"/>
<path d="M48.7228 47.3311L42.5518 41.1914C42.1837 40.8255 41.5888 40.8271 41.2226 41.1948C40.8567 41.5629 40.8583 42.1577 41.2261 42.524L47.3972 48.6637C47.5807 48.846 47.8201 48.9372 48.06 48.9372C48.3015 48.9372 48.5427 48.8448 48.7263 48.6603C49.0922 48.2922 49.0906 47.6973 48.7228 47.3311Z" fill="white"/>
<path d="M34.465 23C28.1433 23 23 28.1292 23 34.4338C23 40.7383 28.1433 45.8675 34.465 45.8675C40.7867 45.8675 45.9301 40.7383 45.9301 34.4338C45.9301 28.1292 40.7868 23 34.465 23ZM34.465 43.9879C29.1795 43.9879 24.8795 39.7017 24.8795 34.4337C24.8795 29.1654 29.1795 24.8795 34.465 24.8795C39.7506 24.8795 44.0506 29.1654 44.0506 34.4337C44.0506 39.7017 39.7506 43.9879 34.465 43.9879Z" fill="white"/>
</svg>
