<svg width="26" height="26" viewBox="0 0 26 26" fill="none" xmlns="http://www.w3.org/2000/svg">
<rect width="26" height="26" fill="#F5F5F5"/>
<g id="Job Portal Website - Action" clip-path="url(#clip0_0_1)">
<rect width="1440" height="5238" transform="translate(-164 -587)" fill="white"/>
<g id="Hero">
<rect id="BG" width="1440" height="800" transform="matrix(1 0 0 -1 -166 223)" fill="url(#paint0_linear_0_1)"/>
<g id="Texts">
<g id="Bar">
<g id="Rectangle 2" filter="url(#filter0_d_0_1)">
<rect x="-29" y="-32" width="592" height="90" rx="8" fill="white"/>
</g>
<g id="Group 4">
<g id="Group 1">
<path id="Vector" d="M25.7228 24.3311L19.5518 18.1914C19.1837 17.8255 18.5888 17.8271 18.2226 18.1948C17.8567 18.5629 17.8583 19.1577 18.2261 19.524L24.3972 25.6637C24.5807 25.846 24.8201 25.9372 25.06 25.9372C25.3015 25.9372 25.5427 25.8448 25.7263 25.6603C26.0922 25.2922 26.0906 24.6973 25.7228 24.3311Z" fill="#5E626E"/>
<path id="Vector_2" d="M11.465 0C5.14328 0 0 5.12921 0 11.4338C0 17.7383 5.14333 22.8675 11.465 22.8675C17.7867 22.8675 22.9301 17.7383 22.9301 11.4338C22.9301 5.12921 17.7868 0 11.465 0ZM11.465 20.9879C6.17952 20.9879 1.87952 16.7017 1.87952 11.4337C1.87952 6.1654 6.17952 1.87946 11.465 1.87946C16.7506 1.87946 21.0506 6.1654 21.0506 11.4337C21.0506 16.7017 16.7506 20.9879 11.465 20.9879Z" fill="#5E626E"/>
</g>
</g>
</g>
</g>
</g>
</g>
<defs>
<filter id="filter0_d_0_1" x="-81" y="-68" width="696" height="194" filterUnits="userSpaceOnUse" color-interpolation-filters="sRGB">
<feFlood flood-opacity="0" result="BackgroundImageFix"/>
<feColorMatrix in="SourceAlpha" type="matrix" values="0 0 0 0 0 0 0 0 0 0 0 0 0 0 0 0 0 0 127 0" result="hardAlpha"/>
<feOffset dy="16"/>
<feGaussianBlur stdDeviation="26"/>
<feComposite in2="hardAlpha" operator="out"/>
<feColorMatrix type="matrix" values="0 0 0 0 0 0 0 0 0 0 0 0 0 0 0 0 0 0 0.07 0"/>
<feBlend mode="normal" in2="BackgroundImageFix" result="effect1_dropShadow_0_1"/>
<feBlend mode="normal" in="SourceGraphic" in2="effect1_dropShadow_0_1" result="shape"/>
</filter>
<linearGradient id="paint0_linear_0_1" x1="720" y1="-123" x2="720" y2="800" gradientUnits="userSpaceOnUse">
<stop stop-color="#F7F8FF" stop-opacity="0"/>
<stop offset="1" stop-color="#F1F4FF"/>
</linearGradient>
<clipPath id="clip0_0_1">
<rect width="1440" height="5238" fill="white" transform="translate(-164 -587)"/>
</clipPath>
</defs>
</svg>
