<svg width="26" height="26" viewBox="0 0 26 26" fill="none" xmlns="http://www.w3.org/2000/svg">
<path d="M25.7228 24.3311L19.5518 18.1914C19.1837 17.8255 18.5888 17.8271 18.2226 18.1948C17.8567 18.5629 17.8583 19.1577 18.2261 19.524L24.3972 25.6637C24.5807 25.846 24.8201 25.9372 25.06 25.9372C25.3015 25.9372 25.5427 25.8448 25.7263 25.6603C26.0922 25.2922 26.0906 24.6973 25.7228 24.3311Z" fill="#5E626E"/>
<path d="M11.465 0C5.14328 0 0 5.12921 0 11.4338C0 17.7383 5.14333 22.8675 11.465 22.8675C17.7867 22.8675 22.9301 17.7383 22.9301 11.4338C22.9301 5.12921 17.7868 0 11.465 0ZM11.465 20.9879C6.17952 20.9879 1.87952 16.7017 1.87952 11.4337C1.87952 6.1654 6.17952 1.87946 11.465 1.87946C16.7506 1.87946 21.0506 6.1654 21.0506 11.4337C21.0506 16.7017 16.7506 20.9879 11.465 20.9879Z" fill="#5E626E"/>
</svg>
